<?xml version="1.0" encoding="utf-8"?>
<!-- Generator: Adobe Illustrator 22.1.0, SVG Export Plug-In . SVG Version: 6.00 Build 0)  -->
<svg version="1.1" id="Calque_1" xmlns="http://www.w3.org/2000/svg" xmlns:xlink="http://www.w3.org/1999/xlink" x="0px" y="0px"
	 viewBox="0 0 500 218.8" style="enable-background:new 0 0 500 218.8;" xml:space="preserve">
<style type="text/css">
	.st0{fill:#010202;}
</style>
<g>
	<g>
		<g>
			<path class="st0" d="M35.4,104.2c0,4.4-1.8,8.9-4.9,12.1c-2.3,2.4-5.3,5.3-9.5,8.2c-6.2,4.4-10.5,6.5-13,12.3h27.2v5.9H0
				c0.1-2.3,0.6-4.4,1.3-6.3c2.2-5.8,6.3-9.8,13.1-14.5c5.2-3.6,8.9-6.8,11.1-9.4s3.2-5.3,3.2-8.4c0-5.5-4.1-9.5-10.1-9.5
				C11.7,94.6,8,99.9,8,106.4l-6.6-0.1c0.2-10.5,6.5-17.3,17.3-17.3C32.3,89.1,35.4,98.8,35.4,104.2z"/>
			<path class="st0" d="M78.9,124.2v5.9h-7.2v12.6h-6.3v-12.6H42v-6.2l24.4-34h5.3v34.3H78.9z M65.4,99.8h-0.2L48,124.2h17.4V99.8z"
				/>
			<path class="st0" d="M127.1,104l-1.2,6.4c-1-0.3-2-0.5-2.9-0.5c-10.1,0-10.2,9.1-10.2,16v16.8h-6.5v-38.9h5.9v7.3h0.3
				c2.5-5.3,5.3-7.4,9-7.8C123.5,103,125.5,103.3,127.1,104z"/>
			<path class="st0" d="M158.3,125.2v-21.4h6.5v38.9h-5.9v-5.9h-0.1c-2.9,4.6-7.1,6.8-12.6,6.8c-7.5,0-11.4-3.7-12.8-9
				c-0.4-1.4-0.5-3.4-0.5-5.9v-24.9h6.5v21.4c0,2.6,0.1,4.7,0.2,6.2c0.5,4.1,3.2,6.7,7.7,6.7C155,138,158.3,132.3,158.3,125.2z"/>
			<path class="st0" d="M209.1,121.2c0,0.9,0.1,2.7-0.1,3.8H180c0.1,7.7,4.4,13,11.9,13c5.1,0,8.7-2.4,10.3-7.8l6.5,0.5
				c-2,8.4-8,12.9-16.8,12.9c-11.6,0-18.6-8.3-18.6-20.2c0-9.3,5.1-20.4,18.3-20.4C202.5,103,208.8,111.2,209.1,121.2z M180.2,119.6
				h22c-0.2-5.5-3.6-11.1-10.9-11.1C184.8,108.4,180.6,113.2,180.2,119.6z"/>
			<path class="st0" d="M249.1,95.2h-17.8V89h42.8v6.2h-17.8v47.5h-7.1V95.2z"/>
			<path class="st0" d="M274.4,123.3c0-8.7,4.4-20.4,18.6-20.4c12.6,0,18.6,9.5,18.6,20.1c0,10.3-5.3,20.6-18.6,20.6
				C281.2,143.6,274.4,135.4,274.4,123.3z M293,138.1c6.7,0,11.8-5,11.8-14.9c0-9.5-5.2-14.7-11.8-14.7c-6.6,0-11.7,5-11.7,14.9
				C281.2,133,286.3,138.1,293,138.1z"/>
			<path class="st0" d="M344.5,125.2v-21.4h6.5v38.9h-5.9v-5.9H345c-2.9,4.6-7.1,6.8-12.6,6.8c-7.5,0-11.4-3.7-12.8-9
				c-0.4-1.4-0.5-3.4-0.5-5.9v-24.9h6.5v21.4c0,2.6,0.1,4.7,0.2,6.2c0.5,4.1,3.2,6.7,7.7,6.7C341.2,138,344.5,132.3,344.5,125.2z"/>
			<path class="st0" d="M383.2,104l-1.2,6.4c-1-0.3-2-0.5-2.9-0.5c-10.1,0-10.2,9.1-10.2,16v16.8h-6.5v-38.9h5.9v7.3h0.3
				c2.5-5.3,5.3-7.4,9-7.8C379.6,103,381.6,103.3,383.2,104z"/>
			<path class="st0" d="M398,90.9v12.9h7.2v5.4H398V133c0,2.9,1.1,4.2,4.1,4.2c0.9,0,2-0.1,3.1-0.2l0.5,5.6
				c-1.8,0.2-3.4,0.4-4.9,0.4c-5.6,0-9.3-2.3-9.3-9.7v-24.1h-5.7v-5.4h5.7V93.3L398,90.9z"/>
			<path class="st0" d="M413.5,89h6.5v7.7h-6.5V89z M413.5,103.8h6.5v38.9h-6.5V103.8z"/>
			<path class="st0" d="M431.3,89h6.5v53.8h-6.5V89z"/>
			<path class="st0" d="M449.2,89h6.5v53.8h-6.5V89z"/>
			<path class="st0" d="M500,121.2c0,0.9,0.1,2.7-0.1,3.8h-29.1c0.1,7.7,4.4,13,11.9,13c5.1,0,8.7-2.4,10.3-7.8l6.5,0.5
				c-2,8.4-8,12.9-16.8,12.9c-11.6,0-18.6-8.3-18.6-20.2c0-9.3,5.1-20.4,18.3-20.4C493.4,103,499.6,111.2,500,121.2z M471,119.6h22
				c-0.2-5.5-3.6-11.1-10.9-11.1C475.6,108.4,471.4,113.2,471,119.6z"/>
		</g>
		<g>
			<path class="st0" d="M192.2,164.2c14.1,0,18.4,7.9,18.4,15.7c0,10.1-5.9,16.2-18.3,16.2h-15.1v21.9H170v-53.8H192.2z
				 M177.1,170.4v19.5h13.9c8.7,0,12.3-3.1,12.3-9.8c0-6.8-4.3-9.6-11.1-9.6H177.1z"/>
			<path class="st0" d="M233.2,178.1c8.6,0,15,4.1,15,11.1v19.4c0,3-0.3,4.7,1.2,4.7c0.3,0,0.8-0.1,1.1-0.2l0.5,4.8
				c-1.1,0.3-2.1,0.5-3.7,0.5c-4.2,0.2-5.3-3.2-5.3-5.5c-4.2,4.6-8.6,5.9-14,5.9c-7.8,0-13.1-4.2-13.1-11.4
				c0-7.4,5.6-10.8,14.2-11.4c7.5-0.5,11.3-2.3,12.5-4.2c0.1-0.6,0.1-1.1,0.1-1.7c0-4.7-3.5-6.6-9.1-6.6c-5.8,0-9.1,2-9.9,7.7
				l-6.5-0.5C217.4,181.9,223.5,178.1,233.2,178.1z M241.5,197.9c-2.4,1.4-6.5,2.4-11.1,2.9c-5.4,0.5-8.5,2.2-8.5,6.6
				c0,3.8,3.2,5.9,7.7,5.9c6,0,9.8-2.9,11.4-6.4c0.5-1.1,0.8-2.6,0.8-4.4v-4.6H241.5z"/>
			<path class="st0" d="M280.2,179.2l-1.2,6.4c-1-0.3-2-0.5-2.9-0.5c-10.1,0-10.2,9.1-10.2,16v16.8h-6.5V179h5.9v7.3h0.3
				c2.5-5.3,5.3-7.4,9-7.8C276.6,178.2,278.6,178.4,280.2,179.2z"/>
			<path class="st0" d="M286.1,164.2h6.5v7.7h-6.5V164.2z M286.1,179h6.5v38.9h-6.5V179z"/>
			<path class="st0" d="M316.8,183.5c-5,0-8.3,1.7-8.3,5.1c0,2.4,2,3.8,5,4.7c2.9,0.8,10.1,2.6,13,3.7c4.1,1.5,7.1,4.4,7.1,9.5
				c0,8-7.4,12.3-16.1,12.3c-9.4,0-15.9-3.9-16.5-12.9l6.5-0.5c0.5,5.4,4.5,7.7,10.2,7.7c5.1,0,9.2-2,9.2-5.9c0-2.6-1.8-4.1-4.1-4.8
				c-3.9-1.2-10.3-2.9-13.5-4.1c-4.1-1.5-7.4-4.6-7.4-9.2c0-7.8,7.4-11.1,14.7-11.1c9.1,0,14.8,3.2,15.5,11.5l-6.4,0.5
				C325.1,185.6,321.6,183.5,316.8,183.5z"/>
		</g>
		<g>
			<path class="st0" d="M150,31.5c2.2-7.4-1.4-11-9.1-10.4c-7,0.6-13.2,4.3-15.4,10.3c-1.2,3.4,0.9,5.1,3.2,5.9
				c4.1,1.6,13.2,3,16.6,4.3c5.4,1.9,7.6,6,5.1,13.1c-3.6,10.2-15.3,17.2-26.2,18c-13.4,1.1-19.8-5.2-15.7-17.3l6.8-0.8
				c-3.1,10.6,5,12.4,11.1,11.9c7.4-0.6,14.6-4.3,16.9-10.9c1.3-3.7,0.2-5.8-3.1-7.2c-3.3-1.5-12.1-2.7-16.6-4.4
				c-4.3-1.6-7.6-4.9-5.2-11.7c3.4-9.6,14.1-16.2,24.5-17c11.8-0.9,17.6,4.3,14,15.5L150,31.5z"/>
			<path class="st0" d="M181.1,15.2l-4.7,13.3l7.2-0.6l-2,5.6l-7.2,0.6l-8.7,24.5c-1.1,3-0.4,4.3,2.6,4c0.9-0.1,2-0.2,3.1-0.4
				l-1.5,5.8c-1.9,0.4-3.5,0.7-5,0.8c-5.5,0.4-8.5-1.6-5.8-9.3l8.8-24.9l-5.7,0.4l2-5.6l5.7-0.4l3.8-10.9L181.1,15.2z"/>
			<path class="st0" d="M208.9,47.5l7.8-22.1l6.5-0.5L209,65l-5.9,0.5l2.2-6.1l-0.1,0c-4.5,5-9.5,7.6-15,8c-7.5,0.6-10-2.9-9.4-8.3
				c0.1-1.4,0.7-3.4,1.6-6.1l9.1-25.7l6.4-0.5l-7.8,22c-1,2.7-1.6,4.8-2,6.3c-1.1,4.2,0.8,6.6,5.3,6.3
				C200.9,60.9,206.3,54.8,208.9,47.5z"/>
			<path class="st0" d="M258.7,27L258.7,27l7.3-20.3l6.5-0.5l-19.6,55.5l-6.3,0.5l1.8-5.2l-0.1,0c-3.8,4.4-8.7,6.6-13.8,7
				c-10.6,0.8-14-7.7-9.8-19.6c4.2-11.9,13.8-21.5,24.1-22.3C253.5,21.7,257.6,23.1,258.7,27z M237.4,58.1
				c7.1-0.6,13.3-7.2,16.4-15.8c3.4-9.6,1.6-15.4-5.9-14.8c-7.3,0.6-13.2,7.1-16.4,16.4C228.2,53,230.4,58.7,237.4,58.1z"/>
			<path class="st0" d="M278.2,20.5l6.5-0.5l-14.2,40.2l-6.5,0.5L278.2,20.5z M283.6,5.3l6.5-0.5l-2.8,7.9l-6.5,0.5L283.6,5.3z"/>
			<path class="st0" d="M286,39.5c3.2-9,11.8-21.4,26-22.5c12.6-1,15.1,8.3,11.2,19.3c-3.8,10.6-12.8,21.7-26,22.7
				C285.4,59.9,281.6,51.9,286,39.5z M299.1,53.3c6.7-0.5,13.6-6.1,17.2-16.3c3.5-9.9,0.2-14.8-6.4-14.3
				c-6.6,0.5-13.5,6.1-17.1,16.3C289.3,48.9,292.5,53.8,299.1,53.3z"/>
			<path class="st0" d="M343.9,0.5l6.5-0.5l-19.6,55.5l-6.5,0.5L343.9,0.5z"/>
			<path class="st0" d="M346.2,34.8c3.2-9,11.8-21.4,26-22.5c12.6-1,15.1,8.3,11.2,19.3c-3.8,10.6-12.8,21.7-26,22.7
				C345.6,55.2,341.8,47.2,346.2,34.8z M359.4,48.5c6.7-0.5,13.6-6.1,17.2-16.3c3.5-9.9,0.2-14.8-6.4-14.3
				c-6.6,0.5-13.5,6.1-17.1,16.3C349.5,44.2,352.8,49,359.4,48.5z"/>
		</g>
	</g>
</g>
</svg>
